<svg width="32" height="32" viewBox="0 0 32 32" fill="none" xmlns="http://www.w3.org/2000/svg">
<g clip-path="url(#clip0_7_622)">
<g clip-path="url(#clip1_7_622)">
<path d="M28.4344 0.506042H3.12937C1.58186 0.506042 0.327393 1.76051 0.327393 3.30802V28.6131C0.327393 30.1606 1.58186 31.4151 3.12937 31.4151H28.4344C29.9819 31.4151 31.2364 30.1606 31.2364 28.6131V3.30802C31.2364 1.76051 29.9819 0.506042 28.4344 0.506042Z" fill="#DC395F"/>
<path d="M10.6573 10.2309C11.6848 10.2309 12.5456 9.42554 12.5456 8.37005C12.5456 7.31528 11.6848 6.51007 10.6573 6.51007C9.62986 6.51007 8.76935 7.31528 8.76935 8.37005C8.76935 9.42542 9.62986 10.2309 10.6573 10.2309ZM6.74228 20.1942C6.63132 20.6663 6.57566 21.176 6.57566 21.5919C6.57566 23.2304 7.46417 24.3181 9.3524 24.3181C10.9184 24.3181 12.1879 23.3882 13.102 21.8866L12.5439 24.1266H15.6535L17.4308 16.9984C17.8751 15.1936 18.7358 14.2568 20.041 14.2568C21.0684 14.2568 21.7069 14.8957 21.7069 15.9505C21.7069 16.2561 21.6792 16.5889 21.5681 16.9501L20.6517 20.2265C20.5128 20.6986 20.4575 21.171 20.4575 21.6149C20.4575 23.1704 21.3736 24.3081 23.2896 24.3081C24.9279 24.3081 26.2328 23.2535 26.9548 20.7265L25.7332 20.2549C25.1223 21.9478 24.5946 22.2539 24.1781 22.2539C23.7616 22.2539 23.5394 21.9764 23.5394 21.4214C23.5394 21.1714 23.5952 20.8941 23.6782 20.5601L24.567 17.3681C24.789 16.6185 24.8725 15.9539 24.8725 15.3432C24.8725 12.9552 23.4284 11.7089 21.6792 11.7089C20.041 11.7089 18.3748 13.1867 17.542 14.7419L18.1527 11.9504H13.4047L12.7383 14.4091H14.9597L13.5918 19.8858C12.5176 22.2738 10.5443 22.3125 10.2967 22.2571C9.89005 22.1654 9.62998 22.0109 9.62998 21.4826C9.62998 21.1777 9.68552 20.7398 9.82436 20.2118L11.9071 11.9504H6.63132L5.96484 14.4091H8.1583L6.74228 20.1942Z" fill="white"/>
</g>
</g>
<defs>
<clipPath id="clip0_7_622">
<rect width="30.909" height="30.909" fill="white" transform="translate(0.327393 0.506042)"/>
</clipPath>
<clipPath id="clip1_7_622">
<rect width="30.909" height="30.909" fill="white" transform="translate(0.327393 0.506042)"/>
</clipPath>
</defs>
</svg>
