<svg width="22" height="22" viewBox="0 0 22 22" fill="none" xmlns="http://www.w3.org/2000/svg">
<path d="M4.56086 18.4435C4.21773 18.4435 3.92161 18.3189 3.6725 18.0698C3.42338 17.8207 3.29883 17.5246 3.29883 17.1815V4.83058C3.29883 4.48745 3.42338 4.19132 3.6725 3.94221C3.92161 3.6931 4.21773 3.56854 4.56086 3.56854H10.0666V4.56132H4.56086C4.49355 4.56132 4.43184 4.58936 4.37573 4.64545C4.31965 4.70155 4.2916 4.76326 4.2916 4.83058V17.1815C4.2916 17.2488 4.31965 17.3105 4.37573 17.3666C4.43184 17.4227 4.49355 17.4507 4.56086 17.4507H16.9118C16.9791 17.4507 17.0408 17.4227 17.0969 17.3666C17.153 17.3105 17.181 17.2488 17.181 17.1815V11.6757H18.1738V17.1815C18.1738 17.5246 18.0492 17.8207 17.8001 18.0698C17.551 18.3189 17.2549 18.4435 16.9118 18.4435H4.56086ZM8.64304 13.8127L7.94307 13.0993L16.481 4.56132H11.8334V3.56854H18.1738V9.90888H17.181V5.27477L8.64304 13.8127Z" fill="white"/>
</svg>
