<svg width="32" height="29" viewBox="0 0 32 29" fill="none" xmlns="http://www.w3.org/2000/svg">
<g clip-path="url(#clip0_7_612)">
<g clip-path="url(#clip1_7_612)">
<path fill-rule="evenodd" clip-rule="evenodd" d="M6.56466 10.1442L15.7046 28.0337L0.342041 10.1442H6.56466Z" fill="#EA6C00"/>
<path fill-rule="evenodd" clip-rule="evenodd" d="M24.847 10.1442L15.7071 28.0337L31.0696 10.1442H24.847Z" fill="#EA6C00"/>
<path fill-rule="evenodd" clip-rule="evenodd" d="M6.56421 10.1442H24.844L15.7041 28.0337L6.56421 10.1442Z" fill="#FDAD00"/>
<path fill-rule="evenodd" clip-rule="evenodd" d="M15.7041 0.229858L7.04527 1.14515L6.56421 10.1442L15.7041 0.229858Z" fill="#FDD231"/>
<path fill-rule="evenodd" clip-rule="evenodd" d="M15.7043 0.229858L24.3632 1.14515L24.8442 10.1442L15.7043 0.229858Z" fill="#FDD231"/>
<path fill-rule="evenodd" clip-rule="evenodd" d="M31.0696 10.1443L24.3659 1.1452L24.847 10.1443H31.0696Z" fill="#FDAD00"/>
<path fill-rule="evenodd" clip-rule="evenodd" d="M0.342041 10.1443L7.04572 1.1452L6.56465 10.1443H0.342041Z" fill="#FDAD00"/>
<path fill-rule="evenodd" clip-rule="evenodd" d="M15.7041 0.229858L6.56421 10.1442H24.844L15.7041 0.229858Z" fill="#FEEEB7"/>
</g>
</g>
<defs>
<clipPath id="clip0_7_612">
<rect width="30.909" height="27.9727" fill="white" transform="translate(0.282227 0.0933838)"/>
</clipPath>
<clipPath id="clip1_7_612">
<rect width="30.9022" height="27.9727" fill="white" transform="translate(0.285889 0.0933838)"/>
</clipPath>
</defs>
</svg>
