<svg width="1345" height="47" viewBox="0 0 1345 47" fill="none" xmlns="http://www.w3.org/2000/svg">
<path d="M5.48438 0.537109C6.07454 0.537109 6.64876 0.584961 7.20703 0.680664C7.78125 0.776367 8.29167 0.919922 8.73828 1.11133C9.1849 1.30273 9.54378 1.54997 9.81494 1.85303C10.0861 2.15609 10.2217 2.51497 10.2217 2.92969V4.93945C10.2217 5.38607 10.1898 6.00814 10.126 6.80566C10.0781 7.58724 9.94255 8.42464 9.71924 9.31787C9.51188 10.2111 9.20085 11.0964 8.78613 11.9736C8.38737 12.8509 7.84505 13.6006 7.15918 14.2227H3.2832C4.08073 13.2656 4.639 12.3006 4.95801 11.3276C5.27702 10.3547 5.43652 9.4375 5.43652 8.57617C4.87826 8.57617 4.31999 8.5363 3.76172 8.45654C3.20345 8.37679 2.70101 8.25716 2.25439 8.09766C1.82373 7.9222 1.47282 7.69889 1.20166 7.42773C0.930501 7.15658 0.794922 6.83757 0.794922 6.4707V2.92969C0.794922 2.51497 0.930501 2.15609 1.20166 1.85303C1.48877 1.54997 1.85563 1.30273 2.30225 1.11133C2.74886 0.919922 3.2513 0.776367 3.80957 0.680664C4.36784 0.584961 4.92611 0.537109 5.48438 0.537109ZM18.5957 0.537109C19.1699 0.537109 19.7362 0.584961 20.2944 0.680664C20.8687 0.776367 21.3791 0.919922 21.8257 1.11133C22.2723 1.30273 22.6312 1.54997 22.9023 1.85303C23.1895 2.15609 23.333 2.51497 23.333 2.92969V4.93945C23.333 5.38607 23.3011 6.00814 23.2373 6.80566C23.1895 7.58724 23.0539 8.42464 22.8306 9.31787C22.6232 10.2111 22.3122 11.0964 21.8975 11.9736C21.4987 12.8509 20.9564 13.6006 20.2705 14.2227H16.3467C17.1602 13.2656 17.7264 12.3006 18.0454 11.3276C18.3804 10.3547 18.5479 9.4375 18.5479 8.57617C17.9736 8.57617 17.4074 8.5363 16.8491 8.45654C16.2909 8.37679 15.7964 8.25716 15.3657 8.09766C14.9351 7.9222 14.5841 7.69889 14.313 7.42773C14.0418 7.15658 13.9062 6.83757 13.9062 6.4707V2.92969C13.9062 2.51497 14.0418 2.15609 14.313 1.85303C14.5841 1.54997 14.943 1.30273 15.3896 1.11133C15.8363 0.919922 16.3387 0.776367 16.897 0.680664C17.4552 0.584961 18.0215 0.537109 18.5957 0.537109ZM50.0342 0.584961C52.5065 0.584961 55.1144 0.672689 57.8579 0.848145C60.6014 1.0236 63.4645 1.36654 66.4473 1.87695V7.9541C65.3786 7.65104 64.1584 7.36393 62.7866 7.09277C61.6063 6.86947 60.1867 6.65413 58.5278 6.44678C56.869 6.23942 54.9948 6.10384 52.9053 6.04004V31.5449C54.9948 31.4811 56.869 31.3455 58.5278 31.1382C60.1867 30.9308 61.6063 30.7155 62.7866 30.4922C64.1584 30.221 65.3786 29.9339 66.4473 29.6309V35.708C63.4645 36.2184 60.6014 36.5614 57.8579 36.7368C55.1144 36.9123 52.5065 37 50.0342 37C47.6257 37 45.0496 36.9123 42.3062 36.7368C39.5627 36.5614 36.6836 36.2184 33.6689 35.708V29.6309C34.7376 29.9339 35.9578 30.221 37.3296 30.4922C38.5099 30.7155 39.9295 30.9308 41.5884 31.1382C43.2472 31.3455 45.1214 31.4811 47.2109 31.5449V6.04004C45.1214 6.10384 43.2472 6.23942 41.5884 6.44678C39.9295 6.65413 38.5099 6.86947 37.3296 7.09277C35.9578 7.36393 34.7376 7.65104 33.6689 7.9541V1.87695C36.6836 1.36654 39.5627 1.0236 42.3062 0.848145C45.0496 0.672689 47.6257 0.584961 50.0342 0.584961ZM110.806 0.537109C113.262 0.537109 115.575 0.752441 117.744 1.18311C119.913 1.61377 121.812 2.21191 123.438 2.97754C125.065 3.74316 126.349 4.66829 127.291 5.75293C128.232 6.82161 128.702 8.00195 128.702 9.29395V28.3389C128.702 29.6309 128.232 30.8192 127.291 31.9038C126.349 32.9725 125.065 33.8896 123.438 34.6553C121.812 35.4209 119.913 36.019 117.744 36.4497C115.575 36.8804 113.262 37.0957 110.806 37.0957C109.434 37.0957 108.03 37.0479 106.595 36.9521C105.159 36.8405 103.764 36.7049 102.408 36.5454C101.068 36.37 99.8078 36.1706 98.6274 35.9473C97.4471 35.724 96.4342 35.4847 95.5889 35.2295V2.40332C96.4342 2.14811 97.4471 1.90885 98.6274 1.68555C99.8078 1.46224 101.068 1.27083 102.408 1.11133C103.764 0.935872 105.159 0.800293 106.595 0.70459C108.03 0.592936 109.434 0.537109 110.806 0.537109ZM110.901 5.94434C109.45 5.94434 108.19 5.99219 107.121 6.08789C106.052 6.16764 105.135 6.2793 104.37 6.42285C103.604 6.55046 102.966 6.69401 102.456 6.85352C101.961 6.99707 101.554 7.12467 101.235 7.23633V30.3965C101.554 30.5241 101.961 30.6597 102.456 30.8032C102.966 30.9468 103.604 31.0903 104.37 31.2339C105.135 31.3615 106.052 31.4731 107.121 31.5688C108.19 31.6486 109.45 31.6885 110.901 31.6885C112.688 31.6885 114.291 31.5449 115.71 31.2578C117.146 30.9707 118.35 30.5879 119.323 30.1094C120.312 29.6309 121.07 29.0806 121.596 28.4585C122.123 27.8205 122.386 27.1585 122.386 26.4727V11.1602C122.386 10.4743 122.123 9.82031 121.596 9.19824C121.07 8.56022 120.312 8.00195 119.323 7.52344C118.35 7.04492 117.146 6.66211 115.71 6.375C114.291 6.08789 112.688 5.94434 110.901 5.94434ZM151.24 9.29395C152.58 9.29395 153.912 9.35775 155.236 9.48535C156.576 9.61296 157.86 9.82031 159.088 10.1074C160.316 10.3945 161.465 10.7534 162.533 11.1841C163.602 11.6147 164.527 12.1331 165.309 12.7393C166.106 13.3454 166.728 14.0472 167.175 14.8447C167.621 15.6263 167.845 16.5036 167.845 17.4766V29.8701C167.845 30.7314 167.621 31.521 167.175 32.2388C166.728 32.9565 166.106 33.6025 165.309 34.1768C164.527 34.735 163.602 35.2215 162.533 35.6362C161.465 36.0509 160.316 36.3939 159.088 36.665C157.86 36.9362 156.576 37.1356 155.236 37.2632C153.896 37.4067 152.564 37.4785 151.24 37.4785C149.916 37.4785 148.584 37.4067 147.245 37.2632C145.921 37.1356 144.645 36.9362 143.417 36.665C142.188 36.3939 141.04 36.0509 139.971 35.6362C138.918 35.2215 137.993 34.735 137.196 34.1768C136.414 33.6025 135.8 32.9645 135.354 32.2627C134.907 31.5449 134.684 30.7474 134.684 29.8701V17.4766C134.684 16.5036 134.907 15.6263 135.354 14.8447C135.8 14.0472 136.414 13.3454 137.196 12.7393C137.993 12.1331 138.918 11.6147 139.971 11.1841C141.04 10.7534 142.188 10.3945 143.417 10.1074C144.645 9.82031 145.921 9.61296 147.245 9.48535C148.584 9.35775 149.916 9.29395 151.24 9.29395ZM140.761 28.3389C140.761 29.0726 141.064 29.7106 141.67 30.2529C142.292 30.7793 143.097 31.2259 144.086 31.5928C145.075 31.9437 146.192 32.2069 147.436 32.3823C148.696 32.5578 149.964 32.6455 151.24 32.6455C152.58 32.6455 153.872 32.5498 155.116 32.3584C156.376 32.167 157.493 31.8958 158.466 31.5449C159.439 31.1781 160.212 30.7314 160.787 30.2051C161.377 29.6628 161.672 29.0407 161.672 28.3389V18.3857C161.672 17.6999 161.377 17.0858 160.787 16.5435C160.212 15.9852 159.439 15.5226 158.466 15.1558C157.493 14.7729 156.376 14.4858 155.116 14.2944C153.872 14.0871 152.58 13.9834 151.24 13.9834C149.964 13.9834 148.696 14.0791 147.436 14.2705C146.192 14.446 145.075 14.7171 144.086 15.084C143.097 15.4508 142.292 15.9134 141.67 16.4717C141.064 17.014 140.761 17.652 140.761 18.3857V28.3389ZM212.06 0.584961C214.516 0.584961 217.116 0.672689 219.859 0.848145C222.619 1.0236 225.49 1.36654 228.473 1.87695V7.9541C227.133 7.57129 225.777 7.26025 224.405 7.021C223.034 6.76579 221.654 6.56641 220.266 6.42285C218.894 6.2793 217.523 6.17562 216.151 6.11182C214.779 6.04801 213.415 6.00814 212.06 5.99219C211.406 5.99219 210.68 6.00814 209.882 6.04004C209.101 6.05599 208.263 6.08789 207.37 6.13574C206.493 6.18359 205.568 6.25537 204.595 6.35107C203.622 6.44678 202.633 6.56641 201.628 6.70996V15.4189H222.539V21.3047H201.628V30.9229C203.175 31.1462 204.786 31.3136 206.461 31.4253C208.136 31.5369 210.002 31.5928 212.06 31.5928C214.835 31.5928 217.594 31.4572 220.338 31.186C223.081 30.9149 225.793 30.3965 228.473 29.6309V35.708C225.49 36.2184 222.627 36.5614 219.883 36.7368C217.14 36.9123 214.564 37 212.155 37C209.699 37 207.091 36.9123 204.332 36.7368C201.588 36.5614 198.709 36.2184 195.694 35.708V1.87695C198.709 1.36654 201.588 1.0236 204.332 0.848145C207.075 0.672689 209.651 0.584961 212.06 0.584961ZM241.728 9.62891C241.632 10.3786 241.576 11.1602 241.56 11.9736C241.544 12.7712 241.536 13.5687 241.536 14.3662C241.536 16.5036 241.664 18.4495 241.919 20.2041C242.19 21.9587 242.637 23.5537 243.259 24.9893C243.881 26.4248 244.694 27.7248 245.699 28.8892C246.72 30.0376 247.98 31.0824 249.479 32.0234C250.963 31.0824 252.207 30.0376 253.212 28.8892C254.233 27.7248 255.054 26.4248 255.676 24.9893C256.298 23.5537 256.745 21.9587 257.016 20.2041C257.287 18.4495 257.423 16.5036 257.423 14.3662C257.423 13.5687 257.407 12.7712 257.375 11.9736C257.343 11.1602 257.279 10.3786 257.184 9.62891C258.603 9.70866 259.863 9.81234 260.964 9.93994C262.064 10.0675 263.006 10.1951 263.787 10.3228C264.68 10.4823 265.478 10.6338 266.18 10.7773V16.3281C265.701 16.1208 265.255 15.9613 264.84 15.8496C264.441 15.722 264.09 15.6263 263.787 15.5625C263.436 15.4987 263.117 15.4508 262.83 15.4189C262.766 17.4766 262.623 19.3587 262.399 21.0654C262.192 22.7562 261.865 24.3034 261.418 25.707C260.988 27.1107 260.43 28.3947 259.744 29.5591C259.058 30.7075 258.228 31.7842 257.255 32.7891C256.298 33.7939 255.174 34.743 253.882 35.6362C252.59 36.5135 251.122 37.3828 249.479 38.2441C247.837 37.3828 246.369 36.5135 245.077 35.6362C243.785 34.743 242.653 33.7939 241.68 32.7891C240.707 31.7842 239.877 30.7075 239.191 29.5591C238.506 28.3947 237.939 27.1107 237.493 25.707C237.062 24.3034 236.727 22.7562 236.488 21.0654C236.264 19.3747 236.129 17.4925 236.081 15.4189C235.794 15.4508 235.475 15.4987 235.124 15.5625C234.821 15.6263 234.462 15.722 234.047 15.8496C233.649 15.9613 233.21 16.1208 232.731 16.3281V10.7773C233.401 10.6338 234.191 10.4823 235.1 10.3228C235.866 10.1951 236.807 10.0675 237.923 9.93994C239.04 9.81234 240.308 9.70866 241.728 9.62891ZM288.766 9.72461C289.579 9.72461 290.56 9.76449 291.708 9.84424C292.857 9.92399 294.045 10.0675 295.273 10.2749C296.518 10.4663 297.746 10.7454 298.958 11.1123C300.17 11.4632 301.255 11.9178 302.212 12.4761C303.185 13.0343 303.966 13.7122 304.557 14.5098C305.163 15.2913 305.466 16.2165 305.466 17.2852V25.3721H278.047V31.4971C279.977 31.7682 281.835 31.9596 283.622 32.0713C285.408 32.167 287.123 32.2148 288.766 32.2148C291.27 32.2148 293.535 32.1191 295.561 31.9277C297.602 31.7363 299.365 31.521 300.848 31.2817C302.555 31.0106 304.094 30.6995 305.466 30.3486V35.6602C302.435 36.1387 299.508 36.4816 296.685 36.689C293.878 36.8963 291.238 37 288.766 37C286.277 37 284.02 36.9362 281.995 36.8086C279.969 36.665 278.23 36.5055 276.779 36.3301C275.088 36.1387 273.565 35.9154 272.209 35.6602V17.2852C272.209 16.2165 272.472 15.2913 272.999 14.5098C273.525 13.7122 274.227 13.0343 275.104 12.4761C275.981 11.9178 276.986 11.4632 278.119 11.1123C279.267 10.7454 280.455 10.4663 281.684 10.2749C282.912 10.0675 284.132 9.92399 285.344 9.84424C286.572 9.76449 287.713 9.72461 288.766 9.72461ZM278.047 21.5439H299.532V18.7686C299.532 18.1146 299.373 17.5563 299.054 17.0938C298.735 16.6152 298.304 16.2165 297.762 15.8975C297.235 15.5785 296.613 15.3232 295.896 15.1318C295.194 14.9245 294.46 14.7729 293.694 14.6772C292.929 14.5656 292.155 14.4938 291.374 14.4619C290.608 14.43 289.882 14.4141 289.196 14.4141C288.479 14.4141 287.705 14.43 286.875 14.4619C286.062 14.4938 285.241 14.5656 284.411 14.6772C283.582 14.7889 282.784 14.9484 282.019 15.1558C281.253 15.3472 280.575 15.6104 279.985 15.9453C279.395 16.2643 278.924 16.6631 278.573 17.1416C278.222 17.6042 278.047 18.1624 278.047 18.8164V21.5439ZM334.033 9.72461C334.033 11.3835 333.977 13.1141 333.866 14.9165C333.754 16.703 333.539 18.5452 333.22 20.4434H327.43C327.573 19.901 327.709 19.3109 327.836 18.6729C327.932 18.1305 328.02 17.5005 328.1 16.7827C328.195 16.049 328.243 15.2754 328.243 14.4619C326.84 14.4938 325.675 14.6294 324.75 14.8687C323.841 15.092 323.083 15.3631 322.477 15.6821C321.871 15.9852 321.376 16.2962 320.994 16.6152C320.611 16.9342 320.268 17.1895 319.965 17.3809V37H313.84V17.2373C313.776 16.7269 313.625 16.2962 313.385 15.9453C313.162 15.5944 312.923 15.3073 312.667 15.084C312.38 14.8128 312.053 14.5895 311.687 14.4141L314.223 9.72461C314.813 9.93197 315.395 10.2111 315.969 10.562C316.464 10.8651 316.982 11.2559 317.524 11.7344C318.083 12.1969 318.577 12.7712 319.008 13.457C319.821 12.8988 320.571 12.4282 321.257 12.0454C321.943 11.6466 322.605 11.3117 323.243 11.0405C323.897 10.7694 324.567 10.562 325.252 10.4185C325.954 10.259 326.72 10.1313 327.549 10.0356C328.395 9.93994 329.336 9.87614 330.373 9.84424C331.425 9.79639 332.646 9.75651 334.033 9.72461ZM348.102 9.38965H354.179V13.4092H348.102V37H342.407V13.4092H337.909V9.38965H342.407V1.06348H348.102V9.38965ZM376.765 9.72461C379.221 9.72461 381.326 9.93197 383.081 10.3467C384.836 10.7454 386.271 11.3516 387.388 12.165C388.52 12.9626 389.342 13.9595 389.852 15.1558C390.378 16.3521 390.642 17.7477 390.642 19.3428V37H384.373V20.8262C384.373 19.9329 384.253 19.1673 384.014 18.5293C383.775 17.8753 383.448 17.325 383.033 16.8784C382.634 16.4159 382.164 16.041 381.622 15.7539C381.079 15.4668 380.513 15.2515 379.923 15.1079C379.349 14.9484 378.758 14.8447 378.152 14.7969C377.546 14.7331 376.972 14.7012 376.43 14.7012C375.409 14.7012 374.436 14.7729 373.511 14.9165C372.586 15.0601 371.708 15.2594 370.879 15.5146C370.049 15.7539 369.268 16.041 368.534 16.376C367.8 16.7109 367.115 17.0618 366.477 17.4287V37H360.208V0.584961H366.477V12.8828C367.21 12.4362 367.96 12.0215 368.726 11.6387C369.491 11.2559 370.289 10.9209 371.118 10.6338C371.964 10.3467 372.849 10.1234 373.774 9.96387C374.715 9.80436 375.712 9.72461 376.765 9.72461ZM404.997 37H398.92V9.72461H404.997V37ZM401.982 0.25C403.163 0.25 404.096 0.449382 404.782 0.848145C405.468 1.23096 405.811 1.84505 405.811 2.69043V3.88672C405.811 4.65234 405.468 5.20264 404.782 5.5376C404.096 5.87256 403.163 6.04004 401.982 6.04004C400.85 6.04004 399.933 5.87256 399.231 5.5376C398.545 5.20264 398.202 4.65234 398.202 3.88672V2.69043C398.202 1.84505 398.545 1.23096 399.231 0.848145C399.933 0.449382 400.85 0.25 401.982 0.25ZM414.95 17.2373C414.886 16.7269 414.735 16.2962 414.496 15.9453C414.272 15.5944 414.025 15.3073 413.754 15.084C413.451 14.8128 413.116 14.5895 412.749 14.4141L415.429 9.72461C416.019 9.93197 416.609 10.2111 417.199 10.562C417.694 10.8651 418.212 11.2559 418.754 11.7344C419.313 12.1969 419.799 12.7712 420.214 13.457C421.011 12.9466 421.825 12.4681 422.654 12.0215C423.5 11.5589 424.377 11.1602 425.286 10.8252C426.211 10.4902 427.176 10.2271 428.181 10.0356C429.202 9.82829 430.295 9.72461 431.459 9.72461C433.915 9.72461 436.021 9.93197 437.775 10.3467C439.546 10.7454 440.989 11.3516 442.106 12.165C443.238 12.9626 444.068 13.9595 444.594 15.1558C445.121 16.3521 445.384 17.7477 445.384 19.3428V37H439.115V20.8262C439.115 19.9329 438.996 19.1673 438.756 18.5293C438.517 17.8753 438.19 17.325 437.775 16.8784C437.377 16.4159 436.906 16.041 436.364 15.7539C435.821 15.4668 435.255 15.2515 434.665 15.1079C434.091 14.9484 433.501 14.8447 432.895 14.7969C432.288 14.7331 431.714 14.7012 431.172 14.7012C430.151 14.7012 429.178 14.7729 428.253 14.9165C427.328 15.0601 426.451 15.2594 425.621 15.5146C424.792 15.7539 424.01 16.041 423.276 16.376C422.543 16.7109 421.857 17.0618 421.219 17.4287V37H414.95V17.2373ZM467.778 9.72461C469.134 9.72461 470.514 9.78044 471.917 9.89209C473.321 9.98779 474.669 10.1234 475.961 10.2988C477.269 10.4583 478.489 10.6497 479.622 10.873C480.77 11.0964 481.767 11.3356 482.612 11.5908H482.995V38.1963C482.995 39.3288 482.756 40.3815 482.277 41.3545C481.799 42.3275 481.105 43.1649 480.196 43.8667C479.287 44.5845 478.17 45.1427 476.846 45.5415C475.522 45.9403 474.015 46.1396 472.324 46.1396V41.9766C472.962 41.9766 473.552 41.9128 474.095 41.7852C474.637 41.6576 475.108 41.4582 475.506 41.187C475.921 40.9318 476.24 40.6048 476.463 40.2061C476.703 39.8232 476.822 39.3766 476.822 38.8662V35.1816C475.371 35.7399 473.863 36.1865 472.3 36.5215C470.753 36.8405 469.246 37 467.778 37C465.322 37 463.129 36.8325 461.199 36.4976C459.269 36.1466 457.634 35.6123 456.294 34.8945C454.954 34.1768 453.933 33.2676 453.231 32.167C452.53 31.0664 452.179 29.7585 452.179 28.2432V18.4814C452.179 16.9661 452.53 15.6582 453.231 14.5576C453.933 13.457 454.954 12.5479 456.294 11.8301C457.634 11.1123 459.269 10.5859 461.199 10.251C463.129 9.90007 465.322 9.72461 467.778 9.72461ZM469.501 32.2148C470.378 32.2148 471.184 32.159 471.917 32.0474C472.651 31.9198 473.313 31.7603 473.903 31.5688C474.509 31.3774 475.052 31.1781 475.53 30.9707C476.025 30.7474 476.455 30.54 476.822 30.3486V15.4668C476.392 15.3073 475.889 15.1478 475.315 14.9883C474.757 14.8288 474.151 14.6932 473.497 14.5815C472.859 14.4539 472.197 14.3582 471.511 14.2944C470.825 14.2147 470.155 14.1748 469.501 14.1748C468.018 14.1748 466.606 14.2147 465.266 14.2944C463.926 14.3742 462.754 14.5895 461.749 14.9404C460.744 15.2913 459.939 15.8337 459.333 16.5674C458.742 17.2852 458.447 18.29 458.447 19.582V26.6162C458.447 27.4616 458.583 28.1873 458.854 28.7935C459.125 29.3996 459.5 29.91 459.979 30.3247C460.473 30.7394 461.063 31.0744 461.749 31.3296C462.435 31.5688 463.185 31.7603 463.998 31.9038C464.812 32.0314 465.681 32.1191 466.606 32.167C467.547 32.1989 468.512 32.2148 469.501 32.2148ZM518.884 0.824219C518.788 1.54199 518.724 2.27572 518.692 3.02539C518.66 3.75911 518.645 4.52474 518.645 5.32227C518.645 6.74186 518.716 8.19336 518.86 9.67676C519.003 11.1442 519.219 12.6117 519.506 14.0791C519.793 15.5465 520.152 16.9901 520.583 18.4097C521.013 19.8133 521.508 21.1532 522.066 22.4292C522.64 23.7052 523.278 24.8936 523.98 25.9941C524.698 27.0947 525.487 28.0677 526.349 28.9131C527.29 27.9401 528.047 26.8236 528.622 25.5635C529.212 24.2874 529.666 22.9635 529.985 21.5918C530.32 20.2041 530.544 18.8084 530.655 17.4048C530.767 16.0011 530.831 14.6693 530.847 13.4092H536.11C536.11 14.6693 536.166 15.9932 536.278 17.3809C536.389 18.7686 536.605 20.1483 536.924 21.52C537.243 22.8758 537.689 24.1917 538.264 25.4678C538.838 26.7279 539.588 27.8604 540.513 28.8652C541.853 27.4137 543.009 25.7708 543.982 23.9365C544.955 22.0863 545.76 20.1483 546.398 18.1226C547.036 16.0968 547.507 14.0233 547.81 11.9019C548.113 9.78044 548.265 7.69889 548.265 5.65723C548.265 3.95052 548.169 2.30762 547.978 0.728516C549.381 0.792318 550.633 0.888021 551.734 1.01562C552.85 1.14323 553.815 1.27083 554.629 1.39844C555.554 1.55794 556.383 1.71745 557.117 1.87695V7.90625C556.591 7.73079 556.072 7.59521 555.562 7.49951C555.068 7.38786 554.581 7.26823 554.103 7.14062C554.103 10.57 553.768 13.7521 553.098 16.687C552.444 19.606 551.527 22.3335 550.346 24.8696C549.166 27.4058 547.754 29.7585 546.111 31.9277C544.468 34.097 542.666 36.1227 540.704 38.0049C539.3 36.6491 537.993 35.1338 536.78 33.459C535.584 31.7842 534.483 29.8861 533.479 27.7646C532.442 29.8861 531.309 31.7922 530.081 33.4829C528.869 35.1737 527.561 36.6969 526.157 38.0527C524.211 36.1706 522.433 34.1449 520.822 31.9756C519.211 29.8063 517.831 27.4536 516.683 24.9175C515.534 22.3813 514.641 19.6538 514.003 16.7349C513.365 13.8 513.046 10.6178 513.046 7.18848C512.472 7.31608 511.913 7.43571 511.371 7.54736C510.845 7.64307 510.318 7.77865 509.792 7.9541V1.87695C509.792 1.8929 509.999 1.861 510.414 1.78125C510.845 1.7015 511.451 1.60579 512.232 1.49414C513.03 1.36654 513.987 1.24691 515.104 1.13525C516.22 1.00765 517.48 0.903971 518.884 0.824219ZM569.75 37H563.673V9.72461H569.75V37ZM566.735 0.25C567.916 0.25 568.849 0.449382 569.535 0.848145C570.221 1.23096 570.563 1.84505 570.563 2.69043V3.88672C570.563 4.65234 570.221 5.20264 569.535 5.5376C568.849 5.87256 567.916 6.04004 566.735 6.04004C565.603 6.04004 564.686 5.87256 563.984 5.5376C563.298 5.20264 562.955 4.65234 562.955 3.88672V2.69043C562.955 1.84505 563.298 1.23096 563.984 0.848145C564.686 0.449382 565.603 0.25 566.735 0.25ZM586.737 9.38965H592.814V13.4092H586.737V37H581.043V13.4092H576.545V9.38965H581.043V1.06348H586.737V9.38965ZM615.4 9.72461C617.857 9.72461 619.962 9.93197 621.717 10.3467C623.471 10.7454 624.907 11.3516 626.023 12.165C627.156 12.9626 627.977 13.9595 628.488 15.1558C629.014 16.3521 629.277 17.7477 629.277 19.3428V37H623.009V20.8262C623.009 19.9329 622.889 19.1673 622.65 18.5293C622.411 17.8753 622.084 17.325 621.669 16.8784C621.27 16.4159 620.8 16.041 620.257 15.7539C619.715 15.4668 619.149 15.2515 618.559 15.1079C617.984 14.9484 617.394 14.8447 616.788 14.7969C616.182 14.7331 615.608 14.7012 615.065 14.7012C614.045 14.7012 613.072 14.7729 612.146 14.9165C611.221 15.0601 610.344 15.2594 609.515 15.5146C608.685 15.7539 607.904 16.041 607.17 16.376C606.436 16.7109 605.75 17.0618 605.112 17.4287V37H598.844V0.584961H605.112V12.8828C605.846 12.4362 606.596 12.0215 607.361 11.6387C608.127 11.2559 608.924 10.9209 609.754 10.6338C610.599 10.3467 611.485 10.1234 612.41 9.96387C613.351 9.80436 614.348 9.72461 615.4 9.72461ZM670.812 0.441406C672.408 0.441406 674.035 0.521159 675.693 0.680664C677.368 0.824219 678.995 1.0874 680.574 1.47021C682.153 1.83708 683.637 2.35547 685.024 3.02539C686.412 3.67936 687.624 4.51676 688.661 5.5376C689.714 6.54248 690.543 7.75472 691.149 9.17432C691.756 10.578 692.059 12.2288 692.059 14.127C692.059 16.057 691.795 17.7557 691.269 19.2231C690.759 20.6906 690.033 21.9666 689.092 23.0513C688.167 24.1359 687.058 25.0451 685.766 25.7788C684.49 26.4966 683.086 27.0788 681.555 27.5254C680.024 27.9561 678.397 28.2671 676.674 28.4585C674.952 28.634 673.189 28.7217 671.387 28.7217C670.254 28.7217 669.13 28.6898 668.013 28.626C666.897 28.5622 665.772 28.4824 664.64 28.3867V36.9521H658.706V1.8291C659.057 1.71745 659.615 1.58187 660.381 1.42236C661.162 1.26286 662.08 1.11133 663.132 0.967773C664.201 0.824219 665.389 0.70459 666.697 0.608887C668.005 0.497233 669.377 0.441406 670.812 0.441406ZM672.535 5.70508C671.482 5.70508 670.478 5.75293 669.521 5.84863C668.563 5.92839 667.726 6.02409 667.008 6.13574C666.147 6.26335 665.357 6.4069 664.64 6.56641V22.9316C665.15 23.0433 665.716 23.139 666.338 23.2188C666.865 23.2985 667.479 23.3703 668.181 23.4341C668.882 23.4819 669.632 23.5059 670.43 23.5059C671.466 23.5059 672.559 23.4819 673.708 23.4341C674.872 23.3703 676.02 23.2347 677.153 23.0273C678.301 22.82 679.386 22.5169 680.407 22.1182C681.444 21.7035 682.353 21.1611 683.134 20.4912C683.932 19.8053 684.562 18.96 685.024 17.9551C685.503 16.9502 685.742 15.738 685.742 14.3184C685.742 13.138 685.551 12.1012 685.168 11.208C684.785 10.3148 684.267 9.54915 683.613 8.91113C682.959 8.27311 682.193 7.74674 681.316 7.33203C680.455 6.91732 679.529 6.59033 678.541 6.35107C677.568 6.11182 676.563 5.94434 675.526 5.84863C674.505 5.75293 673.508 5.70508 672.535 5.70508ZM723.114 27.2383C722.715 26.8874 722.221 26.5444 721.631 26.2095C721.041 25.8745 720.315 25.5794 719.454 25.3242C718.592 25.0531 717.563 24.8377 716.367 24.6782C715.187 24.5028 713.799 24.415 712.204 24.415C710.785 24.415 709.437 24.4469 708.161 24.5107C706.901 24.5586 705.792 24.7181 704.835 24.9893C703.878 25.2445 703.12 25.6592 702.562 26.2334C702.004 26.8076 701.725 27.6051 701.725 28.626V31.6885C703.128 31.9118 704.675 32.0952 706.366 32.2388C708.057 32.3823 709.939 32.4541 712.013 32.4541C713.672 32.4541 715.434 32.3983 717.3 32.2866C719.182 32.159 721.12 31.9118 723.114 31.5449V27.2383ZM712.348 9.72461C713.145 9.72461 714.11 9.76449 715.243 9.84424C716.375 9.92399 717.556 10.0675 718.784 10.2749C720.012 10.4663 721.224 10.7375 722.42 11.0884C723.633 11.4233 724.717 11.87 725.674 12.4282C726.647 12.9705 727.429 13.6245 728.019 14.3901C728.609 15.1558 728.904 16.057 728.904 17.0938V35.6123C727.564 35.8835 726.049 36.1147 724.358 36.3062C722.907 36.4816 721.176 36.6411 719.167 36.7847C717.157 36.9282 714.916 37 712.443 37C709.987 37 707.371 36.8963 704.596 36.689C701.836 36.4816 698.949 36.1227 695.935 35.6123V26.999C695.935 26.0739 696.15 25.2684 696.581 24.5825C697.027 23.8807 697.633 23.2826 698.399 22.7881C699.165 22.2936 700.066 21.8869 701.103 21.5679C702.139 21.2489 703.256 20.9937 704.452 20.8022C705.648 20.6108 706.893 20.4832 708.185 20.4194C709.477 20.3397 710.769 20.2998 712.061 20.2998C714.022 20.2998 715.689 20.4274 717.061 20.6826C718.449 20.9219 719.597 21.1851 720.506 21.4722C721.559 21.8231 722.428 22.2139 723.114 22.6445V18.7686C723.114 18.1146 722.955 17.5563 722.636 17.0938C722.317 16.6152 721.886 16.2165 721.344 15.8975C720.801 15.5625 720.179 15.2993 719.478 15.1079C718.776 14.9006 718.042 14.741 717.276 14.6294C716.511 14.5177 715.729 14.446 714.932 14.4141C714.15 14.3822 713.416 14.3662 712.73 14.3662C712.013 14.3662 711.247 14.3901 710.434 14.438C709.62 14.4699 708.807 14.5417 707.993 14.6533C707.196 14.765 706.422 14.9245 705.672 15.1318C704.939 15.3232 704.285 15.5864 703.71 15.9214C703.136 16.2563 702.674 16.6631 702.323 17.1416C701.988 17.6042 701.82 18.1624 701.82 18.8164L695.887 17.2852C695.887 16.2165 696.15 15.2913 696.676 14.5098C697.203 13.7122 697.896 13.0343 698.758 12.4761C699.635 11.9178 700.64 11.4632 701.772 11.1123C702.905 10.7454 704.077 10.4663 705.29 10.2749C706.518 10.0675 707.738 9.92399 708.95 9.84424C710.162 9.76449 711.295 9.72461 712.348 9.72461ZM751.586 9.72461C753.484 9.72461 755.334 9.84424 757.137 10.0835C758.939 10.3068 760.558 10.6976 761.994 11.2559C763.429 11.7982 764.61 12.5399 765.535 13.481C766.46 14.422 767.01 15.5944 767.186 16.998L761.635 18.5293C761.635 17.6999 761.348 17.014 760.773 16.4717C760.215 15.9134 759.465 15.4827 758.524 15.1797C757.599 14.8607 756.531 14.6374 755.318 14.5098C754.106 14.3822 752.862 14.3184 751.586 14.3184C750.358 14.3184 749.138 14.3822 747.925 14.5098C746.729 14.6214 745.652 14.8368 744.695 15.1558C743.754 15.4588 742.989 15.8815 742.398 16.4238C741.824 16.9661 741.537 17.668 741.537 18.5293V21.4482H767.186V29.7266C767.186 30.6676 766.978 31.505 766.563 32.2388C766.149 32.9565 765.575 33.5866 764.841 34.1289C764.107 34.6553 763.238 35.1099 762.233 35.4927C761.244 35.8595 760.167 36.1546 759.003 36.3779C757.854 36.6012 756.642 36.7607 755.366 36.8564C754.106 36.9521 752.846 37 751.586 37C749.656 37 747.79 36.8883 745.987 36.665C744.185 36.4258 742.566 36.035 741.13 35.4927C739.695 34.9344 738.514 34.1927 737.589 33.2676C736.68 32.3265 736.146 31.1462 735.986 29.7266L741.537 28.1953C741.537 29.0726 741.824 29.7824 742.398 30.3247C742.989 30.867 743.754 31.2897 744.695 31.5928C745.652 31.8958 746.729 32.1032 747.925 32.2148C749.138 32.3105 750.358 32.3584 751.586 32.3584C752.862 32.3584 754.106 32.3026 755.318 32.1909C756.531 32.0633 757.599 31.848 758.524 31.5449C759.465 31.2259 760.215 30.8032 760.773 30.2769C761.348 29.7345 761.635 29.0407 761.635 28.1953V25.2764H735.986V16.998C735.986 16.057 736.194 15.2275 736.608 14.5098C737.023 13.776 737.589 13.146 738.307 12.6196C739.041 12.0773 739.902 11.6227 740.891 11.2559C741.88 10.873 742.949 10.57 744.097 10.3467C745.262 10.1234 746.474 9.96387 747.734 9.86816C749.01 9.77246 750.294 9.72461 751.586 9.72461ZM789.197 9.72461C791.095 9.72461 792.946 9.84424 794.748 10.0835C796.55 10.3068 798.169 10.6976 799.605 11.2559C801.041 11.7982 802.221 12.5399 803.146 13.481C804.071 14.422 804.621 15.5944 804.797 16.998L799.246 18.5293C799.246 17.6999 798.959 17.014 798.385 16.4717C797.826 15.9134 797.077 15.4827 796.136 15.1797C795.211 14.8607 794.142 14.6374 792.93 14.5098C791.717 14.3822 790.473 14.3184 789.197 14.3184C787.969 14.3184 786.749 14.3822 785.537 14.5098C784.34 14.6214 783.264 14.8368 782.307 15.1558C781.366 15.4588 780.6 15.8815 780.01 16.4238C779.436 16.9661 779.148 17.668 779.148 18.5293V21.4482H804.797V29.7266C804.797 30.6676 804.59 31.505 804.175 32.2388C803.76 32.9565 803.186 33.5866 802.452 34.1289C801.718 34.6553 800.849 35.1099 799.844 35.4927C798.855 35.8595 797.779 36.1546 796.614 36.3779C795.466 36.6012 794.254 36.7607 792.978 36.8564C791.717 36.9521 790.457 37 789.197 37C787.267 37 785.401 36.8883 783.599 36.665C781.796 36.4258 780.177 36.035 778.742 35.4927C777.306 34.9344 776.126 34.1927 775.201 33.2676C774.292 32.3265 773.757 31.1462 773.598 29.7266L779.148 28.1953C779.148 29.0726 779.436 29.7824 780.01 30.3247C780.6 30.867 781.366 31.2897 782.307 31.5928C783.264 31.8958 784.34 32.1032 785.537 32.2148C786.749 32.3105 787.969 32.3584 789.197 32.3584C790.473 32.3584 791.717 32.3026 792.93 32.1909C794.142 32.0633 795.211 31.848 796.136 31.5449C797.077 31.2259 797.826 30.8032 798.385 30.2769C798.959 29.7345 799.246 29.0407 799.246 28.1953V25.2764H773.598V16.998C773.598 16.057 773.805 15.2275 774.22 14.5098C774.634 13.776 775.201 13.146 775.918 12.6196C776.652 12.0773 777.514 11.6227 778.502 11.2559C779.491 10.873 780.56 10.57 781.708 10.3467C782.873 10.1234 784.085 9.96387 785.345 9.86816C786.621 9.77246 787.905 9.72461 789.197 9.72461ZM818.53 37H812.453V9.72461H818.53V37ZM815.516 0.25C816.696 0.25 817.629 0.449382 818.315 0.848145C819.001 1.23096 819.344 1.84505 819.344 2.69043V3.88672C819.344 4.65234 819.001 5.20264 818.315 5.5376C817.629 5.87256 816.696 6.04004 815.516 6.04004C814.383 6.04004 813.466 5.87256 812.764 5.5376C812.078 5.20264 811.735 4.65234 811.735 3.88672V2.69043C811.735 1.84505 812.078 1.23096 812.764 0.848145C813.466 0.449382 814.383 0.25 815.516 0.25ZM843.652 9.29395C844.992 9.29395 846.324 9.35775 847.648 9.48535C848.988 9.61296 850.272 9.82031 851.5 10.1074C852.728 10.3945 853.877 10.7534 854.945 11.1841C856.014 11.6147 856.939 12.1331 857.721 12.7393C858.518 13.3454 859.14 14.0472 859.587 14.8447C860.034 15.6263 860.257 16.5036 860.257 17.4766V29.8701C860.257 30.7314 860.034 31.521 859.587 32.2388C859.14 32.9565 858.518 33.6025 857.721 34.1768C856.939 34.735 856.014 35.2215 854.945 35.6362C853.877 36.0509 852.728 36.3939 851.5 36.665C850.272 36.9362 848.988 37.1356 847.648 37.2632C846.308 37.4067 844.976 37.4785 843.652 37.4785C842.328 37.4785 840.997 37.4067 839.657 37.2632C838.333 37.1356 837.057 36.9362 835.829 36.665C834.6 36.3939 833.452 36.0509 832.383 35.6362C831.331 35.2215 830.405 34.735 829.608 34.1768C828.826 33.6025 828.212 32.9645 827.766 32.2627C827.319 31.5449 827.096 30.7474 827.096 29.8701V17.4766C827.096 16.5036 827.319 15.6263 827.766 14.8447C828.212 14.0472 828.826 13.3454 829.608 12.7393C830.405 12.1331 831.331 11.6147 832.383 11.1841C833.452 10.7534 834.6 10.3945 835.829 10.1074C837.057 9.82031 838.333 9.61296 839.657 9.48535C840.997 9.35775 842.328 9.29395 843.652 9.29395ZM833.173 28.3389C833.173 29.0726 833.476 29.7106 834.082 30.2529C834.704 30.7793 835.51 31.2259 836.499 31.5928C837.487 31.9437 838.604 32.2069 839.848 32.3823C841.108 32.5578 842.376 32.6455 843.652 32.6455C844.992 32.6455 846.284 32.5498 847.528 32.3584C848.788 32.167 849.905 31.8958 850.878 31.5449C851.851 31.1781 852.625 30.7314 853.199 30.2051C853.789 29.6628 854.084 29.0407 854.084 28.3389V18.3857C854.084 17.6999 853.789 17.0858 853.199 16.5435C852.625 15.9852 851.851 15.5226 850.878 15.1558C849.905 14.7729 848.788 14.4858 847.528 14.2944C846.284 14.0871 844.992 13.9834 843.652 13.9834C842.376 13.9834 841.108 14.0791 839.848 14.2705C838.604 14.446 837.487 14.7171 836.499 15.084C835.51 15.4508 834.704 15.9134 834.082 16.4717C833.476 17.014 833.173 17.652 833.173 18.3857V28.3389ZM866.908 17.2373C866.844 16.7269 866.693 16.2962 866.454 15.9453C866.23 15.5944 865.983 15.3073 865.712 15.084C865.409 14.8128 865.074 14.5895 864.707 14.4141L867.387 9.72461C867.977 9.93197 868.567 10.2111 869.157 10.562C869.652 10.8651 870.17 11.2559 870.712 11.7344C871.271 12.1969 871.757 12.7712 872.172 13.457C872.969 12.9466 873.783 12.4681 874.612 12.0215C875.458 11.5589 876.335 11.1602 877.244 10.8252C878.169 10.4902 879.134 10.2271 880.139 10.0356C881.16 9.82829 882.253 9.72461 883.417 9.72461C885.873 9.72461 887.979 9.93197 889.733 10.3467C891.504 10.7454 892.947 11.3516 894.064 12.165C895.196 12.9626 896.026 13.9595 896.552 15.1558C897.079 16.3521 897.342 17.7477 897.342 19.3428V37H891.073V20.8262C891.073 19.9329 890.954 19.1673 890.714 18.5293C890.475 17.8753 890.148 17.325 889.733 16.8784C889.335 16.4159 888.864 16.041 888.322 15.7539C887.779 15.4668 887.213 15.2515 886.623 15.1079C886.049 14.9484 885.459 14.8447 884.853 14.7969C884.246 14.7331 883.672 14.7012 883.13 14.7012C882.109 14.7012 881.136 14.7729 880.211 14.9165C879.286 15.0601 878.409 15.2594 877.579 15.5146C876.75 15.7539 875.968 16.041 875.234 16.376C874.501 16.7109 873.815 17.0618 873.177 17.4287V37H866.908V17.2373ZM940.025 0.632812C942.498 0.632812 945.098 0.72054 947.825 0.895996C950.553 1.07145 953.424 1.41439 956.438 1.9248V8.00195C955.37 7.69889 954.15 7.41178 952.778 7.14062C951.597 6.91732 950.178 6.70199 948.519 6.49463C946.86 6.28727 944.986 6.15169 942.896 6.08789V37.0479H937.202V6.08789C935.113 6.15169 933.238 6.28727 931.58 6.49463C929.921 6.70199 928.501 6.91732 927.321 7.14062C925.949 7.41178 924.729 7.69889 923.66 8.00195V1.9248C926.643 1.41439 929.514 1.07145 932.273 0.895996C935.033 0.72054 937.617 0.632812 940.025 0.632812ZM977.493 9.29395C978.833 9.29395 980.165 9.35775 981.489 9.48535C982.829 9.61296 984.113 9.82031 985.341 10.1074C986.569 10.3945 987.717 10.7534 988.786 11.1841C989.855 11.6147 990.78 12.1331 991.562 12.7393C992.359 13.3454 992.981 14.0472 993.428 14.8447C993.874 15.6263 994.098 16.5036 994.098 17.4766V29.8701C994.098 30.7314 993.874 31.521 993.428 32.2388C992.981 32.9565 992.359 33.6025 991.562 34.1768C990.78 34.735 989.855 35.2215 988.786 35.6362C987.717 36.0509 986.569 36.3939 985.341 36.665C984.113 36.9362 982.829 37.1356 981.489 37.2632C980.149 37.4067 978.817 37.4785 977.493 37.4785C976.169 37.4785 974.837 37.4067 973.498 37.2632C972.174 37.1356 970.898 36.9362 969.669 36.665C968.441 36.3939 967.293 36.0509 966.224 35.6362C965.171 35.2215 964.246 34.735 963.449 34.1768C962.667 33.6025 962.053 32.9645 961.606 32.2627C961.16 31.5449 960.937 30.7474 960.937 29.8701V17.4766C960.937 16.5036 961.16 15.6263 961.606 14.8447C962.053 14.0472 962.667 13.3454 963.449 12.7393C964.246 12.1331 965.171 11.6147 966.224 11.1841C967.293 10.7534 968.441 10.3945 969.669 10.1074C970.898 9.82031 972.174 9.61296 973.498 9.48535C974.837 9.35775 976.169 9.29395 977.493 9.29395ZM967.014 28.3389C967.014 29.0726 967.317 29.7106 967.923 30.2529C968.545 30.7793 969.35 31.2259 970.339 31.5928C971.328 31.9437 972.445 32.2069 973.689 32.3823C974.949 32.5578 976.217 32.6455 977.493 32.6455C978.833 32.6455 980.125 32.5498 981.369 32.3584C982.629 32.167 983.746 31.8958 984.719 31.5449C985.692 31.1781 986.465 30.7314 987.04 30.2051C987.63 29.6628 987.925 29.0407 987.925 28.3389V18.3857C987.925 17.6999 987.63 17.0858 987.04 16.5435C986.465 15.9852 985.692 15.5226 984.719 15.1558C983.746 14.7729 982.629 14.4858 981.369 14.2944C980.125 14.0871 978.833 13.9834 977.493 13.9834C976.217 13.9834 974.949 14.0791 973.689 14.2705C972.445 14.446 971.328 14.7171 970.339 15.084C969.35 15.4508 968.545 15.9134 967.923 16.4717C967.317 17.014 967.014 17.652 967.014 18.3857V28.3389ZM1037.31 0.202148C1039.76 0.202148 1041.95 0.41748 1043.86 0.848145C1045.79 1.27881 1047.42 1.87695 1048.74 2.64258C1050.08 3.4082 1051.1 4.33333 1051.81 5.41797C1052.51 6.48665 1052.86 7.66699 1052.86 8.95898V12.4521C1052.86 13.8239 1052.59 14.9325 1052.05 15.7778C1051.52 16.6232 1050.79 17.3011 1049.84 17.8115C1050.63 18.0348 1051.34 18.3219 1052 18.6729C1052.67 19.0238 1053.23 19.4544 1053.7 19.9648C1054.18 20.4593 1054.54 21.0415 1054.8 21.7114C1055.07 22.3654 1055.2 23.123 1055.2 23.9844V28.6738C1055.2 29.9658 1054.73 31.1541 1053.79 32.2388C1052.85 33.3075 1051.57 34.2326 1049.94 35.0142C1048.31 35.7957 1046.42 36.4019 1044.25 36.8325C1042.08 37.2632 1039.76 37.4785 1037.31 37.4785C1035.94 37.4785 1034.53 37.4227 1033.1 37.311C1031.66 37.2153 1030.27 37.0798 1028.91 36.9043C1027.57 36.7288 1026.31 36.5295 1025.13 36.3062C1023.95 36.0828 1022.94 35.8516 1022.09 35.6123V2.02051C1022.94 1.78125 1023.95 1.55794 1025.13 1.35059C1026.31 1.12728 1027.57 0.935872 1028.91 0.776367C1030.27 0.600911 1031.66 0.465332 1033.1 0.369629C1034.53 0.257975 1035.94 0.202148 1037.31 0.202148ZM1037.12 21.1133C1036.25 21.1133 1035.39 21.1213 1034.53 21.1372C1033.67 21.1372 1032.83 21.1611 1032.02 21.209C1031.22 21.2409 1030.46 21.2967 1029.72 21.3765C1028.99 21.4562 1028.33 21.5599 1027.74 21.6875V30.7793C1028.06 30.891 1028.46 31.0186 1028.96 31.1621C1029.47 31.3057 1030.11 31.4412 1030.87 31.5688C1031.64 31.6965 1032.55 31.8081 1033.62 31.9038C1034.69 31.9836 1035.95 32.0234 1037.4 32.0234C1039.19 32.0234 1040.79 31.8799 1042.21 31.5928C1043.65 31.3057 1044.85 30.9229 1045.83 30.4443C1046.81 29.9658 1047.57 29.4155 1048.1 28.7935C1048.62 28.1554 1048.89 27.4935 1048.89 26.8076V24.75C1048.89 24.0003 1048.55 23.3862 1047.88 22.9077C1047.21 22.4292 1046.33 22.0623 1045.23 21.8071C1044.13 21.536 1042.87 21.3525 1041.45 21.2568C1040.04 21.1611 1038.6 21.1133 1037.12 21.1133ZM1027.74 15.1797C1028.73 15.3711 1029.85 15.4987 1031.11 15.5625C1032.39 15.6263 1033.83 15.6582 1035.44 15.6582C1036.83 15.6582 1038.21 15.6104 1039.58 15.5146C1040.95 15.403 1042.19 15.2275 1043.29 14.9883C1044.39 14.7331 1045.28 14.3981 1045.97 13.9834C1046.65 13.5527 1047.01 13.0104 1047.02 12.3564V10.8252C1047.02 10.1393 1046.85 9.48535 1046.52 8.86328C1046.2 8.22526 1045.66 7.66699 1044.89 7.18848C1044.14 6.70996 1043.15 6.32715 1041.93 6.04004C1040.7 5.75293 1039.19 5.60938 1037.4 5.60938C1035.95 5.60938 1034.69 5.65723 1033.62 5.75293C1032.55 5.83268 1031.64 5.93636 1030.87 6.06396C1030.11 6.19157 1029.47 6.32715 1028.96 6.4707C1028.46 6.61426 1028.06 6.74186 1027.74 6.85352V15.1797ZM1083.15 9.72461C1083.15 11.3835 1083.09 13.1141 1082.98 14.9165C1082.87 16.703 1082.65 18.5452 1082.34 20.4434H1076.55C1076.69 19.901 1076.83 19.3109 1076.95 18.6729C1077.05 18.1305 1077.14 17.5005 1077.22 16.7827C1077.31 16.049 1077.36 15.2754 1077.36 14.4619C1075.96 14.4938 1074.79 14.6294 1073.87 14.8687C1072.96 15.092 1072.2 15.3631 1071.59 15.6821C1070.99 15.9852 1070.49 16.2962 1070.11 16.6152C1069.73 16.9342 1069.38 17.1895 1069.08 17.3809V37H1062.96V17.2373C1062.89 16.7269 1062.74 16.2962 1062.5 15.9453C1062.28 15.5944 1062.04 15.3073 1061.78 15.084C1061.5 14.8128 1061.17 14.5895 1060.8 14.4141L1063.34 9.72461C1063.93 9.93197 1064.51 10.2111 1065.09 10.562C1065.58 10.8651 1066.1 11.2559 1066.64 11.7344C1067.2 12.1969 1067.69 12.7712 1068.12 13.457C1068.94 12.8988 1069.69 12.4282 1070.37 12.0454C1071.06 11.6466 1071.72 11.3117 1072.36 11.0405C1073.01 10.7694 1073.68 10.562 1074.37 10.4185C1075.07 10.259 1075.84 10.1313 1076.67 10.0356C1077.51 9.93994 1078.45 9.87614 1079.49 9.84424C1080.54 9.79639 1081.76 9.75651 1083.15 9.72461ZM1096.26 37H1090.18V9.72461H1096.26V37ZM1093.25 0.25C1094.43 0.25 1095.36 0.449382 1096.05 0.848145C1096.73 1.23096 1097.07 1.84505 1097.07 2.69043V3.88672C1097.07 4.65234 1096.73 5.20264 1096.05 5.5376C1095.36 5.87256 1094.43 6.04004 1093.25 6.04004C1092.11 6.04004 1091.2 5.87256 1090.49 5.5376C1089.81 5.20264 1089.47 4.65234 1089.47 3.88672V2.69043C1089.47 1.84505 1089.81 1.23096 1090.49 0.848145C1091.2 0.449382 1092.11 0.25 1093.25 0.25ZM1106.21 17.2373C1106.15 16.7269 1106 16.2962 1105.76 15.9453C1105.54 15.5944 1105.29 15.3073 1105.02 15.084C1104.71 14.8128 1104.38 14.5895 1104.01 14.4141L1106.69 9.72461C1107.28 9.93197 1107.87 10.2111 1108.46 10.562C1108.96 10.8651 1109.48 11.2559 1110.02 11.7344C1110.58 12.1969 1111.06 12.7712 1111.48 13.457C1112.28 12.9466 1113.09 12.4681 1113.92 12.0215C1114.76 11.5589 1115.64 11.1602 1116.55 10.8252C1117.47 10.4902 1118.44 10.2271 1119.44 10.0356C1120.47 9.82829 1121.56 9.72461 1122.72 9.72461C1125.18 9.72461 1127.28 9.93197 1129.04 10.3467C1130.81 10.7454 1132.25 11.3516 1133.37 12.165C1134.5 12.9626 1135.33 13.9595 1135.86 15.1558C1136.38 16.3521 1136.65 17.7477 1136.65 19.3428V37H1130.38V20.8262C1130.38 19.9329 1130.26 19.1673 1130.02 18.5293C1129.78 17.8753 1129.45 17.325 1129.04 16.8784C1128.64 16.4159 1128.17 16.041 1127.63 15.7539C1127.09 15.4668 1126.52 15.2515 1125.93 15.1079C1125.35 14.9484 1124.76 14.8447 1124.16 14.7969C1123.55 14.7331 1122.98 14.7012 1122.44 14.7012C1121.41 14.7012 1120.44 14.7729 1119.52 14.9165C1118.59 15.0601 1117.71 15.2594 1116.88 15.5146C1116.06 15.7539 1115.27 16.041 1114.54 16.376C1113.81 16.7109 1113.12 17.0618 1112.48 17.4287V37H1106.21V17.2373ZM1159.04 9.72461C1160.4 9.72461 1161.78 9.78044 1163.18 9.89209C1164.58 9.98779 1165.93 10.1234 1167.22 10.2988C1168.53 10.4583 1169.75 10.6497 1170.89 10.873C1172.03 11.0964 1173.03 11.3356 1173.88 11.5908H1174.26V38.1963C1174.26 39.3288 1174.02 40.3815 1173.54 41.3545C1173.06 42.3275 1172.37 43.1649 1171.46 43.8667C1170.55 44.5845 1169.43 45.1427 1168.11 45.5415C1166.79 45.9403 1165.28 46.1396 1163.59 46.1396V41.9766C1164.23 41.9766 1164.82 41.9128 1165.36 41.7852C1165.9 41.6576 1166.37 41.4582 1166.77 41.187C1167.18 40.9318 1167.5 40.6048 1167.73 40.2061C1167.97 39.8232 1168.09 39.3766 1168.09 38.8662V35.1816C1166.63 35.7399 1165.13 36.1865 1163.56 36.5215C1162.02 36.8405 1160.51 37 1159.04 37C1156.59 37 1154.39 36.8325 1152.46 36.4976C1150.53 36.1466 1148.9 35.6123 1147.56 34.8945C1146.22 34.1768 1145.2 33.2676 1144.5 32.167C1143.79 31.0664 1143.44 29.7585 1143.44 28.2432V18.4814C1143.44 16.9661 1143.79 15.6582 1144.5 14.5576C1145.2 13.457 1146.22 12.5479 1147.56 11.8301C1148.9 11.1123 1150.53 10.5859 1152.46 10.251C1154.39 9.90007 1156.59 9.72461 1159.04 9.72461ZM1160.76 32.2148C1161.64 32.2148 1162.45 32.159 1163.18 32.0474C1163.91 31.9198 1164.58 31.7603 1165.17 31.5688C1165.77 31.3774 1166.32 31.1781 1166.79 30.9707C1167.29 30.7474 1167.72 30.54 1168.09 30.3486V15.4668C1167.66 15.3073 1167.15 15.1478 1166.58 14.9883C1166.02 14.8288 1165.41 14.6932 1164.76 14.5815C1164.12 14.4539 1163.46 14.3582 1162.77 14.2944C1162.09 14.2147 1161.42 14.1748 1160.76 14.1748C1159.28 14.1748 1157.87 14.2147 1156.53 14.2944C1155.19 14.3742 1154.02 14.5895 1153.01 14.9404C1152.01 15.2913 1151.2 15.8337 1150.6 16.5674C1150.01 17.2852 1149.71 18.29 1149.71 19.582V26.6162C1149.71 27.4616 1149.85 28.1873 1150.12 28.7935C1150.39 29.3996 1150.76 29.91 1151.24 30.3247C1151.74 30.7394 1152.33 31.0744 1153.01 31.3296C1153.7 31.5688 1154.45 31.7603 1155.26 31.9038C1156.08 32.0314 1156.94 32.1191 1157.87 32.167C1158.81 32.1989 1159.78 32.2148 1160.76 32.2148ZM1213.88 6.13574C1212.94 6.21549 1212.08 6.30322 1211.3 6.39893C1210.51 6.47868 1209.76 6.56641 1209.05 6.66211V30.875C1210.1 31.0186 1211.26 31.1462 1212.54 31.2578C1213.82 31.3695 1215.2 31.4492 1216.7 31.4971C1217.18 31.529 1217.65 31.5449 1218.11 31.5449C1218.58 31.5449 1219.05 31.5449 1219.53 31.5449C1220 31.5449 1220.48 31.5449 1220.96 31.5449C1221.44 31.5449 1221.92 31.529 1222.4 31.4971C1224.18 31.4492 1225.77 31.3615 1227.16 31.2339C1228.56 31.0903 1229.83 30.9069 1230.96 30.6836C1231.25 29.1045 1231.49 27.1904 1231.68 24.9414H1237.14C1237.04 26.6481 1236.9 28.3947 1236.73 30.1812C1236.55 31.9517 1236.31 33.778 1235.99 35.6602C1232.96 36.1706 1230.07 36.5135 1227.33 36.689C1224.6 36.8644 1222.03 36.9521 1219.62 36.9521C1217.15 36.9521 1214.53 36.8644 1211.77 36.689C1209.01 36.5135 1206.14 36.1706 1203.16 35.6602V1.8291C1205.06 1.49414 1206.89 1.24691 1208.66 1.0874C1210.45 0.911947 1212.19 0.776367 1213.88 0.680664V6.13574ZM1248.33 37H1242.26V9.72461H1248.33V37ZM1245.32 0.25C1246.5 0.25 1247.43 0.449382 1248.12 0.848145C1248.8 1.23096 1249.15 1.84505 1249.15 2.69043V3.88672C1249.15 4.65234 1248.8 5.20264 1248.12 5.5376C1247.43 5.87256 1246.5 6.04004 1245.32 6.04004C1244.19 6.04004 1243.27 5.87256 1242.57 5.5376C1241.88 5.20264 1241.54 4.65234 1241.54 3.88672V2.69043C1241.54 1.84505 1241.88 1.23096 1242.57 0.848145C1243.27 0.449382 1244.19 0.25 1245.32 0.25ZM1270.87 4.7959C1270.22 4.7959 1269.62 4.8597 1269.08 4.9873C1268.53 5.11491 1268.06 5.31429 1267.64 5.58545C1267.24 5.84066 1266.93 6.16764 1266.71 6.56641C1266.48 6.94922 1266.37 7.39583 1266.37 7.90625V9.38965H1272.55V13.4092H1266.37V37H1260.15V13.4092H1256.28V9.38965H1260.15V8.57617C1260.15 7.44368 1260.39 6.39095 1260.87 5.41797C1261.35 4.44499 1262.04 3.60758 1262.95 2.90576C1263.88 2.18799 1265 1.62972 1266.33 1.23096C1267.65 0.832194 1269.16 0.632812 1270.87 0.632812V4.7959ZM1295.42 9.72461C1296.23 9.72461 1297.21 9.76449 1298.36 9.84424C1299.51 9.92399 1300.7 10.0675 1301.93 10.2749C1303.17 10.4663 1304.4 10.7454 1305.61 11.1123C1306.82 11.4632 1307.91 11.9178 1308.87 12.4761C1309.84 13.0343 1310.62 13.7122 1311.21 14.5098C1311.82 15.2913 1312.12 16.2165 1312.12 17.2852V25.3721H1284.7V31.4971C1286.63 31.7682 1288.49 31.9596 1290.27 32.0713C1292.06 32.167 1293.78 32.2148 1295.42 32.2148C1297.92 32.2148 1300.19 32.1191 1302.21 31.9277C1304.26 31.7363 1306.02 31.521 1307.5 31.2817C1309.21 31.0106 1310.75 30.6995 1312.12 30.3486V35.6602C1309.09 36.1387 1306.16 36.4816 1303.34 36.689C1300.53 36.8963 1297.89 37 1295.42 37C1292.93 37 1290.67 36.9362 1288.65 36.8086C1286.62 36.665 1284.88 36.5055 1283.43 36.3301C1281.74 36.1387 1280.22 35.9154 1278.86 35.6602V17.2852C1278.86 16.2165 1279.13 15.2913 1279.65 14.5098C1280.18 13.7122 1280.88 13.0343 1281.76 12.4761C1282.63 11.9178 1283.64 11.4632 1284.77 11.1123C1285.92 10.7454 1287.11 10.4663 1288.34 10.2749C1289.57 10.0675 1290.79 9.92399 1292 9.84424C1293.23 9.76449 1294.37 9.72461 1295.42 9.72461ZM1284.7 21.5439H1306.19V18.7686C1306.19 18.1146 1306.03 17.5563 1305.71 17.0938C1305.39 16.6152 1304.96 16.2165 1304.42 15.8975C1303.89 15.5785 1303.27 15.3232 1302.55 15.1318C1301.85 14.9245 1301.11 14.7729 1300.35 14.6772C1299.58 14.5656 1298.81 14.4938 1298.03 14.4619C1297.26 14.43 1296.54 14.4141 1295.85 14.4141C1295.13 14.4141 1294.36 14.43 1293.53 14.4619C1292.72 14.4938 1291.89 14.5656 1291.06 14.6772C1290.24 14.7889 1289.44 14.9484 1288.67 15.1558C1287.91 15.3472 1287.23 15.6104 1286.64 15.9453C1286.05 16.2643 1285.58 16.6631 1285.23 17.1416C1284.88 17.6042 1284.7 18.1624 1284.7 18.8164V21.5439ZM1326.76 0.537109C1327.35 0.537109 1327.93 0.584961 1328.48 0.680664C1329.06 0.776367 1329.57 0.919922 1330.02 1.11133C1330.46 1.30273 1330.82 1.54997 1331.09 1.85303C1331.36 2.15609 1331.5 2.51497 1331.5 2.92969V4.93945C1331.5 5.38607 1331.47 6.00814 1331.4 6.80566C1331.36 7.58724 1331.22 8.42464 1331 9.31787C1330.79 10.2111 1330.48 11.0964 1330.06 11.9736C1329.66 12.8509 1329.12 13.6006 1328.44 14.2227H1324.56C1325.36 13.2656 1325.92 12.3006 1326.24 11.3276C1326.55 10.3547 1326.71 9.4375 1326.71 8.57617C1326.16 8.57617 1325.6 8.5363 1325.04 8.45654C1324.48 8.37679 1323.98 8.25716 1323.53 8.09766C1323.1 7.9222 1322.75 7.69889 1322.48 7.42773C1322.21 7.15658 1322.07 6.83757 1322.07 6.4707V2.92969C1322.07 2.51497 1322.21 2.15609 1322.48 1.85303C1322.77 1.54997 1323.13 1.30273 1323.58 1.11133C1324.03 0.919922 1324.53 0.776367 1325.09 0.680664C1325.65 0.584961 1326.2 0.537109 1326.76 0.537109ZM1339.87 0.537109C1340.45 0.537109 1341.01 0.584961 1341.57 0.680664C1342.15 0.776367 1342.66 0.919922 1343.1 1.11133C1343.55 1.30273 1343.91 1.54997 1344.18 1.85303C1344.47 2.15609 1344.61 2.51497 1344.61 2.92969V4.93945C1344.61 5.38607 1344.58 6.00814 1344.51 6.80566C1344.47 7.58724 1344.33 8.42464 1344.11 9.31787C1343.9 10.2111 1343.59 11.0964 1343.17 11.9736C1342.78 12.8509 1342.23 13.6006 1341.55 14.2227H1337.62C1338.44 13.2656 1339 12.3006 1339.32 11.3276C1339.66 10.3547 1339.83 9.4375 1339.83 8.57617C1339.25 8.57617 1338.68 8.5363 1338.13 8.45654C1337.57 8.37679 1337.07 8.25716 1336.64 8.09766C1336.21 7.9222 1335.86 7.69889 1335.59 7.42773C1335.32 7.15658 1335.18 6.83757 1335.18 6.4707V2.92969C1335.18 2.51497 1335.32 2.15609 1335.59 1.85303C1335.86 1.54997 1336.22 1.30273 1336.67 1.11133C1337.11 0.919922 1337.62 0.776367 1338.17 0.680664C1338.73 0.584961 1339.3 0.537109 1339.87 0.537109Z" fill="url(#paint0_linear_2479_8636)"/>
<defs>
<linearGradient id="paint0_linear_2479_8636" x1="1352" y1="11" x2="-6" y2="11" gradientUnits="userSpaceOnUse">
<stop stop-color="#ADFBDA"/>
<stop offset="0.3" stop-color="#35C3FF"/>
<stop offset="0.5" stop-color="#FDA399"/>
<stop offset="0.7" stop-color="#76D880"/>
<stop offset="0.9" stop-color="#EBF38B"/>
<stop offset="1" stop-color="#ADFBDA"/>
</linearGradient>
</defs>
</svg>
