<svg width="2500" height="2500" viewBox="0 0 2500 2500" fill="none" xmlns="http://www.w3.org/2000/svg">
<g clip-path="url(#clip0_42_124)">
<path d="M1250 59.4106C1907.08 59.4106 2440.59 594.106 2440.59 1250C2440.59 1905.89 1905.89 2440.59 1250 2440.59C594.106 2440.59 59.4106 1907.08 59.4106 1250C59.4106 592.918 594.106 59.4106 1250 59.4106ZM1250 0C559.648 0 0 559.648 0 1250C0 1940.35 559.648 2500 1250 2500C1940.35 2500 2500 1940.35 2500 1250C2500 559.648 1941.54 0 1250 0Z" fill="white"/>
<path d="M1163.26 501.426C1163.26 501.426 881.653 581.036 628.564 849.572C375.474 1118.11 343.393 1309.41 343.393 1452C399.239 1356.94 743.82 832.937 824.619 1082.46V1678.94C824.619 1678.94 819.866 1759.74 696.292 1727.66C733.126 1796.58 923.24 1966.49 1266.63 2000.95C1345.06 1922.53 1447.24 1809.65 1447.24 1809.65L1618.35 1954.61C1618.35 1954.61 1926.09 1754.99 2047.29 1465.07C1934.41 1538.74 1797.77 1709.84 1726.47 1589.83V863.831C1726.47 863.831 1909.46 589.354 1937.97 576.283C1865.49 589.354 1610.03 673.717 1475.76 847.196C1437.74 805.608 1331.99 804.42 1331.99 804.42C1331.99 804.42 1415.16 873.337 1416.35 936.312C1417.54 999.287 1416.35 1524.48 1416.35 1585.08C1359.31 1643.3 1298.72 1674.19 1259.5 1674.19C1168.01 1674.19 1141.87 1642.11 1116.92 1610.03V847.196C1116.92 847.196 1071.77 885.219 1036.12 823.432C1000.47 761.645 999.286 641.635 1163.26 501.426Z" fill="white"/>
</g>
<defs>
<clipPath id="clip0_42_124">
<rect width="2500" height="2500" fill="white"/>
</clipPath>
</defs>
</svg>
