<svg width="32" height="30" viewBox="0 0 32 30" fill="none" xmlns="http://www.w3.org/2000/svg">
<g clip-path="url(#clip0_7_605)">
<g clip-path="url(#clip1_7_605)">
<path d="M6.32876 0.941345H25.0534C27.8923 0.941345 30.1876 3.23663 30.1876 6.07553V24.0754C30.1876 26.9143 27.8923 29.2096 25.0534 29.2096H6.32876C3.48986 29.2096 1.19458 26.9143 1.19458 24.0754V6.07553C1.19458 3.23663 3.48986 0.941345 6.32876 0.941345Z" fill="#470137"/>
<path d="M16.4401 8.37086L12.8159 14.3507L16.6817 20.6929C16.7058 20.7412 16.7179 20.7895 16.7058 20.8379C16.6938 20.8862 16.6454 20.85 16.573 20.862H13.8065C13.6132 20.862 13.4804 20.85 13.3958 20.7291C13.1421 20.2218 12.8763 19.7265 12.6226 19.2191C12.369 18.7238 12.0911 18.2164 11.8012 17.697C11.5112 17.1775 11.2213 16.658 10.9314 16.1265H10.9072C10.6535 16.646 10.3757 17.1654 10.0978 17.6849C9.81999 18.2043 9.54214 18.7238 9.27637 19.2312C8.99852 19.7386 8.72067 20.258 8.44282 20.7533C8.3945 20.8741 8.29785 20.8862 8.16497 20.8862H5.50727C5.45895 20.8862 5.42271 20.9104 5.42271 20.85C5.41063 20.8016 5.42271 20.7533 5.44687 20.7171L9.20388 14.556L5.54351 8.35878C5.50727 8.31046 5.49519 8.26214 5.51935 8.23798C5.54351 8.20174 5.59183 8.18966 5.64016 8.18966H8.38241C8.44282 8.18966 8.50322 8.20174 8.55154 8.21382C8.59986 8.23798 8.6361 8.27422 8.67235 8.32254C8.90187 8.842 9.16764 9.36146 9.44549 9.88092C9.73542 10.4004 10.0133 10.9078 10.3153 11.4151C10.6052 11.9225 10.871 12.4299 11.1247 12.9493H11.1488C11.4025 12.4178 11.6683 11.8983 11.9341 11.391C12.1998 10.8836 12.4777 10.3762 12.7555 9.86884C13.0334 9.36146 13.2992 8.842 13.5649 8.3467C13.577 8.29838 13.6012 8.25006 13.6374 8.2259C13.6857 8.20174 13.734 8.18966 13.7944 8.20174H16.3434C16.4038 8.18966 16.4642 8.2259 16.4763 8.2863C16.4884 8.29838 16.4642 8.3467 16.4401 8.37086ZM22.0212 21.1157C21.1273 21.1278 20.2333 20.9466 19.4239 20.5721C18.6629 20.2218 18.0347 19.6419 17.5998 18.9292C17.1528 18.1923 16.9354 17.2741 16.9354 16.1748C16.9233 15.2809 17.1528 14.399 17.5998 13.6259C18.0588 12.8406 18.7233 12.1883 19.5206 11.7534C20.3662 11.2822 21.381 11.0527 22.5769 11.0527C22.6373 11.0527 22.7219 11.0527 22.8306 11.0648C22.9393 11.0769 23.0601 11.0769 23.2051 11.089V7.27154C23.2051 7.18698 23.2414 7.13866 23.3259 7.13866H25.7782C25.8386 7.12658 25.887 7.1749 25.899 7.22322V18.748C25.899 18.9654 25.9111 19.207 25.9232 19.4728C25.9474 19.7265 25.9594 19.9681 25.9715 20.1734C25.9715 20.258 25.9353 20.3305 25.8507 20.3667C25.2225 20.6325 24.5581 20.8258 23.8816 20.9466C23.2655 21.0553 22.6494 21.1157 22.0212 21.1157ZM23.2051 18.6996V13.3842C23.0964 13.3601 22.9877 13.3359 22.8789 13.3238C22.7461 13.3118 22.6132 13.2997 22.4803 13.2997C22.0091 13.2997 21.538 13.3963 21.1152 13.6138C20.7045 13.8191 20.3541 14.1211 20.0884 14.5077C19.8226 14.8943 19.6897 15.4138 19.6897 16.0419C19.6776 16.4648 19.7501 16.8876 19.8951 17.2862C20.0159 17.6124 20.1971 17.9023 20.4387 18.1439C20.6682 18.3614 20.9461 18.5305 21.2602 18.6272C21.5863 18.7359 21.9246 18.7842 22.2628 18.7842C22.444 18.7842 22.6132 18.7721 22.7702 18.76C22.9273 18.7721 23.0601 18.748 23.2051 18.6996Z" fill="#FF61F6"/>
</g>
</g>
<defs>
<clipPath id="clip0_7_605">
<rect width="30.909" height="28.274" fill="white" transform="translate(0.236572 0.938782)"/>
</clipPath>
<clipPath id="clip1_7_605">
<rect width="28.993" height="28.274" fill="white" transform="translate(1.19458 0.93866)"/>
</clipPath>
</defs>
</svg>
