<svg width="24" height="24" viewBox="0 0 24 24" fill="none" xmlns="http://www.w3.org/2000/svg">
<path d="M16.6269 12.75H5.25C5.03718 12.75 4.85898 12.6782 4.7154 12.5346C4.5718 12.391 4.5 12.2128 4.5 12C4.5 11.7872 4.5718 11.609 4.7154 11.4654C4.85898 11.3218 5.03718 11.25 5.25 11.25H16.6269L11.4577 6.08077C11.309 5.93205 11.2356 5.75802 11.2375 5.55867C11.2394 5.3593 11.3179 5.18206 11.4731 5.02694C11.6282 4.88208 11.8038 4.80708 12 4.80194C12.1961 4.79681 12.3718 4.87181 12.5269 5.02694L18.8672 11.3673C18.9608 11.4609 19.0269 11.5596 19.0653 11.6635C19.1038 11.7673 19.123 11.8795 19.123 12C19.123 12.1205 19.1038 12.2327 19.0653 12.3365C19.0269 12.4404 18.9608 12.5391 18.8672 12.6327L12.5269 18.973C12.3884 19.1115 12.217 19.1823 12.0125 19.1855C11.808 19.1887 11.6282 19.1179 11.4731 18.973C11.3179 18.8179 11.2404 18.6397 11.2404 18.4384C11.2404 18.2372 11.3179 18.059 11.4731 17.9038L16.6269 12.75Z" fill="white"/>
</svg>
